<?xml version="1.0" standalone="no"?>
<!DOCTYPE svg PUBLIC "-//W3C//DTD SVG 20010904//EN"
 "http://www.w3.org/TR/2001/REC-SVG-20010904/DTD/svg10.dtd">
<svg version="1.0" xmlns="http://www.w3.org/2000/svg"
 width="509.000000pt" height="170.000000pt" viewBox="0 0 509.000000 170.000000"
 preserveAspectRatio="xMidYMid meet">

<g transform="translate(0.000000,170.000000) scale(0.100000,-0.100000)"
fill="#000000" stroke="none">
<path d="M94 1596 l-34 -34 0 -732 0 -732 34 -34 34 -34 399 0 c437 0 426 -1
458 60 23 44 23 1436 0 1480 -32 61 -21 60 -458 60 l-399 0 -34 -34z m707
-130 c6 -7 -17 -335 -35 -506 -22 -196 -52 -415 -81 -591 -14 -81 -25 -149
-25 -152 0 -3 -7 -13 -16 -21 -19 -19 -111 -22 -149 -4 -30 14 -26 -4 -64 273
-36 263 -88 550 -140 775 -33 142 -37 167 -24 176 12 10 140 33 268 48 46 5
261 7 266 2z"/>
<path d="M1267 1064 c-4 -4 -7 -87 -7 -185 0 -156 2 -178 17 -183 9 -4 20 -3
25 2 5 5 7 89 6 188 -3 152 -5 179 -18 182 -9 1 -19 0 -23 -4z"/>
<path d="M1435 1056 c-17 -7 -44 -28 -59 -46 -27 -33 -28 -36 -24 -136 3 -98
4 -104 32 -133 58 -60 141 -65 195 -10 39 38 57 98 36 118 -11 12 -17 12 -29
1 -9 -7 -16 -21 -16 -32 0 -31 -45 -68 -82 -68 -62 1 -88 40 -88 130 0 64 18
113 45 124 53 20 125 -16 125 -62 0 -11 7 -26 16 -33 14 -11 18 -11 29 5 26
35 -15 119 -70 142 -42 17 -71 17 -110 0z"/>
<path d="M2197 1064 c-4 -4 -7 -31 -7 -61 0 -58 0 -57 -50 -43 -80 23 -170
-42 -170 -123 0 -63 29 -108 83 -131 41 -17 49 -18 89 -4 37 12 46 12 57 1 31
-33 36 -8 36 178 0 158 -2 184 -15 187 -9 1 -19 0 -23 -4z m-45 -168 c27 -20
39 -62 27 -93 -13 -35 -37 -52 -75 -53 -78 0 -108 98 -45 147 21 16 72 16 93
-1z"/>
<path d="M2739 1054 c-11 -13 -2 -25 59 -87 68 -68 73 -71 89 -54 16 16 15 19
-22 57 l-39 40 85 0 c96 0 134 15 110 44 -20 23 -262 24 -282 0z"/>
<path d="M4337 1064 c-11 -12 -8 -250 4 -281 16 -43 48 -72 92 -84 32 -9 43
-8 55 5 13 12 13 18 2 30 -7 9 -21 16 -31 16 -10 0 -30 11 -46 24 -27 24 -28
27 -33 157 -4 110 -8 134 -20 137 -9 1 -19 0 -23 -4z"/>
<path d="M1740 953 c-73 -38 -100 -124 -60 -190 74 -123 250 -75 250 68 0 101
-102 167 -190 122z m117 -69 c49 -49 10 -134 -61 -134 -38 1 -62 18 -75 53
-31 82 73 144 136 81z"/>
<path d="M2375 963 c-37 -10 -73 -43 -89 -84 -44 -109 68 -221 177 -176 44 19
63 49 42 67 -12 10 -20 9 -40 -4 -13 -9 -37 -16 -52 -16 -30 0 -73 24 -73 41
0 5 42 9 94 9 106 0 122 9 111 59 -17 76 -93 123 -170 104z m95 -78 l23 -25
-76 0 c-80 0 -93 8 -55 34 34 24 81 20 108 -9z"/>
<path d="M3040 954 c-11 -13 -5 -23 41 -70 l53 -54 -54 -55 c-51 -52 -53 -56
-37 -72 16 -16 20 -14 72 37 l55 54 55 -54 c52 -51 56 -53 72 -37 16 16 14 20
-37 72 l-54 55 54 55 c51 52 53 56 37 72 -16 16 -20 14 -72 -37 l-55 -54 -53
52 c-29 29 -55 52 -59 52 -3 0 -11 -7 -18 -16z"/>
<path d="M3412 963 c-32 -6 -88 -65 -95 -101 -14 -70 38 -152 104 -166 17 -3
49 -1 70 4 26 7 45 7 57 1 34 -18 42 6 42 130 0 96 -3 119 -16 130 -14 12 -18
12 -27 -2 -8 -14 -15 -14 -46 -3 -37 14 -50 14 -89 7z m95 -75 c30 -28 31 -83
1 -115 -47 -50 -138 -12 -138 57 0 68 87 105 137 58z"/>
<path d="M3632 958 c-19 -19 -16 -242 3 -258 26 -21 35 0 35 78 0 90 15 126
51 130 47 5 59 -19 59 -118 0 -71 3 -89 16 -94 28 -11 34 4 34 87 0 92 15 127
54 127 43 0 56 -29 56 -122 0 -71 3 -87 17 -92 29 -12 35 10 31 112 -3 113
-14 134 -78 153 -30 9 -43 8 -69 -6 -31 -15 -35 -15 -68 0 -29 14 -43 15 -70
7 -19 -6 -35 -6 -39 -1 -7 12 -18 11 -32 -3z"/>
<path d="M4032 958 c-15 -15 -17 -320 -2 -349 13 -23 36 -25 44 -3 3 9 6 37 6
64 l0 48 41 -14 c139 -48 242 135 129 230 -40 33 -79 40 -128 23 -35 -12 -43
-12 -53 -1 -14 17 -22 17 -37 2z m185 -70 c33 -31 32 -90 -3 -117 -36 -28 -79
-27 -109 4 -73 73 37 184 112 113z"/>
<path d="M4602 963 c-32 -6 -88 -65 -95 -101 -15 -73 39 -155 112 -167 69 -12
154 43 116 75 -12 10 -20 9 -40 -4 -13 -9 -37 -16 -52 -16 -30 0 -73 24 -73
41 0 5 42 9 94 9 106 0 122 9 111 59 -9 41 -42 81 -81 97 -33 14 -49 15 -92 7z
m98 -78 l23 -25 -76 0 c-80 0 -93 8 -55 34 34 24 81 20 108 -9z"/>
<path d="M4854 956 c-33 -15 -44 -33 -44 -72 0 -60 41 -84 145 -84 62 0 78 -9
68 -37 -3 -9 -27 -13 -73 -13 -75 0 -104 -16 -80 -45 15 -18 126 -21 163 -4
25 11 47 47 47 74 0 24 -22 64 -39 71 -9 4 -52 10 -96 13 -71 5 -80 8 -80 26
0 18 8 21 75 25 72 5 75 6 75 30 0 24 -3 25 -65 27 -38 2 -78 -3 -96 -11z"/>
<path d="M2735 940 c-8 -13 7 -39 40 -70 l27 -25 -34 -5 c-33 -5 -33 -5 -36
-66 -2 -43 1 -64 11 -73 10 -8 54 -11 138 -9 112 3 124 5 127 22 6 29 -16 36
-126 36 -93 0 -103 2 -100 18 2 13 15 18 55 20 76 4 77 23 1 99 -59 60 -89 75
-103 53z"/>
</g>
</svg>
