<?xml version="1.0" standalone="no"?>
<!DOCTYPE svg PUBLIC "-//W3C//DTD SVG 20010904//EN"
 "http://www.w3.org/TR/2001/REC-SVG-20010904/DTD/svg10.dtd">
 
<svg version="1.0" xmlns="http://www.w3.org/2000/svg"
 width="187.000000pt" height="309.000000pt" viewBox="0 0 187.000000 309.000000"
 preserveAspectRatio="xMidYMid meet">

<g transform="translate(0.000000,309.000000) scale(0.100000,-0.100000)"
fill="#000000" stroke="none">
<path d="M158 3006 c-38 -17 -77 -55 -99 -98 -18 -36 -19 -80 -19 -1389 l0
-1352 24 -42 c14 -23 44 -55 67 -71 l42 -29 746 0 746 0 45 30 c24 17 55 48
67 70 l23 40 0 1353 c0 1312 -1 1354 -19 1390 -20 38 -58 77 -98 100 -32 17
-1485 16 -1525 -2z m1271 -331 c5 -59 -26 -483 -58 -800 -5 -49 -14 -142 -20
-205 -10 -107 -17 -164 -41 -330 -5 -36 -14 -101 -20 -145 -21 -149 -30 -210
-50 -335 -42 -270 -79 -486 -85 -502 -16 -42 -193 -65 -270 -35 -73 28 -78 37
-95 182 -6 50 -15 119 -20 155 -5 36 -14 106 -19 155 -10 84 -38 262 -61 398
-14 83 -28 160 -45 262 -8 50 -21 124 -29 165 -46 237 -57 294 -75 380 -19 93
-40 185 -81 365 -42 179 -49 220 -42 227 25 25 157 47 572 97 41 5 156 8 255
7 l180 -1 4 -40z"/>
</g>
</svg>
